<svg width="3840" height="2160" viewBox="0 0 3840 2160" fill="none" xmlns="http://www.w3.org/2000/svg">
  <g clip-path="url(#a)">
    <ellipse cx="1873.5" cy="1200" rx="393.5" ry="394" fill="#b46fc0"/>
    <path d="m3820.5 640 19.5-8 2.5 653h-2785V942.5L1094 920l26.5 10.5L1141 897l18 7 12.5 26.5 10.5 25 13.5-9.5 16-3.5 16.5 13 20.5-13 12 20.5 55 5.5 22.5 32.5 19.5 6.5 34 10.5 17.5 16.5 28 8.5 24 20.5 37 5.5h33l28.5-13h31.5l26 7.5 95 5.5 10-17 46.5-34 218.5 4.5 13.5-33L2025 964l21-6 3.5-34.5 26-46 43.5-52 37 30 26-21.5 24.5-43.5 9.5-40.5 27-19.5h27.5l46-22.5 19.5-33.5 43.5-81.5 34.5-6 46-34.5 13 25 18.5 23 8.5 14.5 16 21 18.5 11 20.5 27.5 30 33.5 29.5 17.5 22 5L2671 750l24.5 19 21.5 13 8.5 29.5 332 19 67-23 47-22.5 60-32.5h51.5l60.5-40.5 70.5-46 47 21 47 11 37.5-17 35.5-15 50-35 61.5 9 35.5-9 39-15 20.5 24z" fill="#69316d"/>
    <path d="m3469 780.5 39 29V1182l-1429.5 71v-166.5l47-28.5h29l41.5-4.5 27.5-21.5 31-21 19.5-20.5 10.5-14h17l38-34.5 3.5-21.5 33-24.5 15-29.5 31-55 50.5 55 17-16 16 41 18 23 22.5 6 33-11 62.5-59 13-28 16.5-11 24-28 32.5-28.5 8.5-19 19-27 19.5-28 19-23.5 15 23.5 15 16h15.5l7 12 13.5 3.5 5 5 10.5 9 8.5-9 6.5-8.5 11.5 3.5 6 9L2919 709l10-9.5 7 2 10 7.5 17.5 8.5 6 18.5 6.5 14.5 10.5 16 17 19h7.5l12.5-13 6.5-13.5 12-23 16.5 19 16 17.5 17 19.5 13 17.5 17.5 10 20.5 11.5 18 10.5 18.5 7 8.5-7 9.5-10.5 19-4.5 7.5-17 14.5-7 23 3 9.5 14 8 11.5 8.5-11.5 24.5-31 17-31 23-6.5 8-19 10 16.5 12.5 9 15 23 17 3 11 12.5 21.5 6.5zm-2881 159-23.5 6.5v393.5c0 20 782.33 8.33 1173.5 0v-208c-19.67-5.17-68.1-14.1-104.5-8.5s-47.83 2.33-49 0l-74.5-7h-51l-57.5 7H1382l-30-14.5-50-14.5-28.5-10.5-66.5-46.5-39.5-38.5-31.5-40h-24.5l-43-25.5-14.5-23.5-24-4-17.5 17-17 10.5-36.5-27.5-7.5-22.5-20-43-10-17h-14l-13-34.5-26-26-37 31L813 798l-15 4.5-7.5 20.5-38 54.5L725 883l-12 26.5-16.5 7.5-19.5 5.5-19.5 17-40 6.5z" fill="#350836"/>
    <path d="m3643.5 759.5 45 14.5v410h-948l-9.5-40 23.5-27 46-12 37-13 50.5 5 54.5-26 78-16 57.5-23.5 49.5-23L3163 998l30-32 39-16.5 8.5-46L3297 873l54-64 33.5 16 35 9.5 27-17.5 25-26 27.5 18 16.5-18 31.5-6.5 24.5-25 17-15 26 6.5z" fill="#2b0132"/>
    <path d="M3813.5 689.5 3840 676l.5 497h-1011v-44.5l86.5-13 47.5-24H3110l76-24h76.5l65.5-21c14.33-5.17 45.6-23.9 56-57.5s36.67-30.333 48.5-24.5l19.5-26 18.5-26.5 35.5-26 32.5-32.5 13-40.5 46-27.5L3655 765l24.5-29.5 48-6.5 28-26.5 33-10z" fill="#17051d"/>
    <path d="M3781.5 958.5 3840 891v1269H0V706l5.5-2.5 13 2.5 11 2.5 1.5-11 3-10 5.5 7.5 5 15.5 8-7L61 692l10.5-2 8.5-2.5 8.5-2 8.5-6 1.5-8h7l8 8L121 690l6.5 12 11 4 8-4 9-12 2 30.5 5.5 6.5 9-9.5 5.5-22.5 4.5 29.5 6 6 18-28.5 6 64.5 7-9 6.5-18.5 5 18.5 10 11v-13l9-13 10 43.5 8.5 2 6 24.5 13 1.5 9-13 11.5 25.5 8.5 11 6.5-23.5 5 29 9 12.5H363l9.5-29 14 29h4.5l7-21.5 4 21.5h9l11.5-12.5 13-5.5L449 847c2.833 1.333 9.5 2.4 13.5-4s7.333-13.667 8.5-16.5l14 24.5 6.5 25 8.5 10.5 11.5-16.5 7-14.5 20 24 12 24L558 916l17 6.5V950h15.5l8.5 9h22l12 16.5 28.5 7h55l12 10H749l6 10 11 10.5 33.5 9 36.5 6 16.5 23 16 13.5H882l24-33 25 27 33 20.5 36 8.5 26.5 17 19 15.5 35.5 4.5 3 25.5 39 7 28 7.5 16.5-44.5 5.5 44.5h10l21-35.5v35.5l34.5 9h48l18-23.5 14.5 14.5 6.5-14.5 17.5-21 7 14.5 14 30 30 13.5h90l9-43.5 11.5 43.5 55.5-13.5 36.5-16.5 5.5-28 5.5 28 44.5-37h24.5l19-15.5 8.5-24 28-8 22-28 9-41 27-12 13-15.5 21.5-21.5L1842 976l14.5-6 25.5 6 13.5 15.5 24-15.5 30.5-6 39.5 15.5 45.5 23.5 34.5 17 40 30 36 24.5 33 16.5 73.5 32 39 14.5 60-5.5 98.5-9 39.5-9 77 5 28-9.5h102.5l17-25 28 25 35 9.5 35.5-9.5 25 13.5h203.5l63.5-17h71.5l85.5-4.5 47.5-21.5 44.5-4.5h52l48 4.5 38.5-61.5 24.5 36.5 27.5-31.5 9 25.5 24-44.5 18.5 29 24-76.5 38.5 83h12l9.5-48 27.5 31.5 34-13.5 28-81.5z" fill="url(#b)"/>
  </g>
  <defs>
    <linearGradient id="b" x1="1920" y1="1032" x2="1920" y2="2160" gradientUnits="userSpaceOnUse">
      <stop stop-color="#190021"/>
      <stop offset="1"/>
    </linearGradient>
    <clipPath id="a">
      <path fill="#fff" d="M0 0h3840v2160H0z"/>
    </clipPath>
  </defs>
</svg>
